M48
INCH,LZ
;FILE_FORMAT=2:4
;TYPE=PLATED
;Layer: PTH_Through
;EasyEDA v6.5.22, 2022-12-24 17:29:58
;e378571d72874c3dbad289936ee8c248,b6e8962e620740079bb188d2402746ea,10
;Gerber Generator version 0.2
;Holesize 1 = 0.0280 inch
T01C0.0280
;Holesize 2 = 0.0350 inch
T02C0.0350
;Holesize 3 = 0.0400 inch
T03C0.0400
;Holesize 4 = 0.0430 inch
T04C0.0430
;Holesize 5 = 0.0470 inch
T05C0.0470
;Holesize 6 = 0.0590 inch
T06C0.0590
;Holesize 7 = 0.1580 inch
T07C0.1580
%
G05
G90
T01
X012800Y002300
X012300Y002300
X011800Y002300
X015550Y017650
X016550Y017650
X021450Y017450
X020450Y017450
X020550Y011717
X020550Y007583
X010133Y005050
X014267Y005050
T02
X007034Y001585G85X007860Y001585
X006069Y003849G85X006069Y002982
X008431Y002982G85X008431Y003849
T03
X012850Y009450
X012850Y010450
X012850Y011450
X012850Y012450
X012850Y013450
X012850Y014450
X012850Y015450
X012850Y016450
X012850Y017450
X012850Y018450
X012850Y019450
X012850Y020450
X012850Y021450
X012850Y022450
X012850Y023450
X003850Y023450
X003850Y022450
X003850Y021450
X003850Y020450
X003850Y019450
X003850Y018450
X003850Y017450
X003850Y016450
X003850Y015450
X003850Y014450
X003850Y013450
X003850Y012450
X003850Y011450
X003850Y010450
X003850Y009450
T04
X020000Y024000
X020000Y023000
X020000Y022000
X020000Y021000
T05
X016398Y009700
X016402Y010700
X016398Y008700
X018550Y013752
X019550Y013748
X017550Y013752
T06
X017875Y002500
X021025Y002500
T07
X025952Y025038
X025952Y003384
X062566Y003384
X062566Y025038
M30
