G04 Layer: BottomLayer*
G04 EasyEDA v6.5.22, 2022-12-24 17:29:58*
G04 e378571d72874c3dbad289936ee8c248,b6e8962e620740079bb188d2402746ea,10*
G04 Gerber Generator version 0.2*
G04 Scale: 100 percent, Rotated: No, Reflected: No *
G04 Dimensions in inches *
G04 leading zeros omitted , absolute positions ,3 integer and 6 decimal *
%FSLAX36Y36*%
%MOIN*%

%ADD10C,0.0320*%
%ADD11C,0.2756*%
%ADD12R,0.1575X0.0669*%
%ADD13O,0.10236200000000001X0.070866*%
%ADD14R,0.1024X0.0709*%
%ADD15O,0.070866X0.10236200000000001*%
%ADD16R,0.0709X0.1024*%
%ADD17O,0.035433X0.06299199999999999*%
%ADD18R,0.0354X0.0630*%
%ADD19O,0.145669X0.059054999999999996*%
%ADD20O,0.059054999999999996X0.149606*%
%ADD21C,0.0650*%
%ADD22R,0.0650X0.0650*%
%ADD23O,0.11810999999999999X0.19685*%
%ADD24C,0.0551*%
%ADD25C,0.0740*%
%ADD26C,0.0300*%
%ADD27C,0.0126*%

%LPD*%
G36*
X289800Y95200D02*
G01*
X288260Y95500D01*
X286980Y96380D01*
X286100Y97660D01*
X285800Y99200D01*
X285800Y887480D01*
X286100Y889000D01*
X286980Y890300D01*
X288260Y891180D01*
X289800Y891480D01*
X291340Y891180D01*
X292620Y890300D01*
X700660Y482280D01*
X702380Y480660D01*
X704180Y479219D01*
X706060Y477920D01*
X708040Y476740D01*
X710100Y475720D01*
X712220Y474840D01*
X714400Y474099D01*
X716620Y473540D01*
X718880Y473120D01*
X721180Y472879D01*
X723540Y472800D01*
X982260Y472800D01*
X983580Y472580D01*
X984760Y471920D01*
X988280Y469120D01*
X993080Y466220D01*
X998199Y463940D01*
X1003580Y462340D01*
X1011280Y461100D01*
X1012520Y460260D01*
X1190180Y282580D01*
X1191060Y281280D01*
X1191360Y279760D01*
X1191360Y248240D01*
X1192120Y248240D01*
X1193720Y247920D01*
X1195040Y246980D01*
X1195880Y245580D01*
X1196080Y243640D01*
X1196080Y216360D01*
X1195880Y214420D01*
X1195040Y213020D01*
X1193720Y212079D01*
X1192120Y211759D01*
X1191360Y211759D01*
X1191360Y182300D01*
X1197520Y182300D01*
X1200880Y182640D01*
X1203900Y183560D01*
X1206700Y185060D01*
X1208540Y186560D01*
X1209920Y187300D01*
X1211500Y187440D01*
X1213000Y186980D01*
X1215920Y185380D01*
X1220440Y183680D01*
X1225180Y182659D01*
X1230000Y182320D01*
X1234820Y182659D01*
X1239560Y183680D01*
X1244080Y185380D01*
X1248320Y187700D01*
X1252580Y190920D01*
X1254140Y191640D01*
X1255860Y191640D01*
X1257420Y190920D01*
X1261680Y187700D01*
X1265920Y185380D01*
X1270440Y183680D01*
X1275180Y182659D01*
X1280000Y182320D01*
X1284820Y182659D01*
X1289560Y183680D01*
X1294079Y185380D01*
X1298340Y187700D01*
X1302200Y190600D01*
X1305620Y194020D01*
X1308520Y197880D01*
X1310840Y202140D01*
X1312540Y206660D01*
X1313560Y211400D01*
X1313920Y216360D01*
X1313920Y243640D01*
X1313560Y248600D01*
X1312200Y254940D01*
X1312200Y472600D01*
X1312500Y474120D01*
X1313380Y475420D01*
X1359220Y521280D01*
X1360520Y522140D01*
X1362060Y522440D01*
X1363580Y522140D01*
X1364880Y521280D01*
X1381940Y504219D01*
X1382700Y503160D01*
X1383060Y501900D01*
X1383740Y496640D01*
X1385180Y491220D01*
X1387280Y486019D01*
X1390020Y481140D01*
X1393380Y476640D01*
X1397280Y472620D01*
X1401660Y469120D01*
X1406459Y466220D01*
X1411579Y463940D01*
X1416960Y462340D01*
X1422500Y461460D01*
X1428100Y461280D01*
X1433680Y461800D01*
X1439139Y463060D01*
X1444400Y465000D01*
X1449379Y467580D01*
X1453980Y470800D01*
X1458120Y474560D01*
X1461759Y478840D01*
X1464820Y483540D01*
X1467240Y488579D01*
X1469019Y493900D01*
X1470080Y499400D01*
X1470440Y505000D01*
X1470080Y510600D01*
X1469019Y516100D01*
X1467240Y521420D01*
X1464820Y526460D01*
X1461759Y531160D01*
X1458120Y535440D01*
X1453980Y539200D01*
X1449379Y542420D01*
X1444400Y545000D01*
X1439139Y546940D01*
X1433680Y548180D01*
X1429980Y548540D01*
X1428640Y548920D01*
X1427520Y549700D01*
X1390820Y586420D01*
X1389940Y587720D01*
X1389640Y589240D01*
X1389640Y1872480D01*
X1389560Y1874860D01*
X1389319Y1877140D01*
X1388899Y1879400D01*
X1388340Y1881639D01*
X1387600Y1883820D01*
X1386720Y1885940D01*
X1385700Y1887980D01*
X1384520Y1889960D01*
X1383220Y1891860D01*
X1381780Y1893640D01*
X1380160Y1895380D01*
X1339040Y1936500D01*
X1338140Y1937900D01*
X1337880Y1939560D01*
X1338200Y1945000D01*
X1337840Y1951180D01*
X1336759Y1957260D01*
X1334980Y1963200D01*
X1332540Y1968880D01*
X1329440Y1974240D01*
X1325740Y1979199D01*
X1321500Y1983700D01*
X1316759Y1987660D01*
X1311600Y1991060D01*
X1310880Y1991420D01*
X1309520Y1992540D01*
X1308779Y1994120D01*
X1308779Y1995880D01*
X1309520Y1997460D01*
X1310880Y1998580D01*
X1311600Y1998940D01*
X1316759Y2002340D01*
X1321500Y2006300D01*
X1325740Y2010800D01*
X1329440Y2015760D01*
X1332540Y2021120D01*
X1334980Y2026800D01*
X1336759Y2032740D01*
X1337840Y2038820D01*
X1338200Y2045000D01*
X1337840Y2051180D01*
X1336759Y2057260D01*
X1334980Y2063200D01*
X1332540Y2068880D01*
X1329440Y2074240D01*
X1325740Y2079199D01*
X1321500Y2083700D01*
X1316759Y2087660D01*
X1311600Y2091060D01*
X1310880Y2091420D01*
X1309520Y2092540D01*
X1308779Y2094120D01*
X1308779Y2095880D01*
X1309520Y2097460D01*
X1310880Y2098580D01*
X1311600Y2098940D01*
X1316759Y2102340D01*
X1321500Y2106300D01*
X1325740Y2110800D01*
X1329440Y2115760D01*
X1332540Y2121120D01*
X1334980Y2126800D01*
X1336759Y2132740D01*
X1337840Y2138820D01*
X1338200Y2145000D01*
X1337840Y2151180D01*
X1336759Y2157260D01*
X1334980Y2163200D01*
X1332540Y2168880D01*
X1329440Y2174240D01*
X1325740Y2179200D01*
X1321500Y2183700D01*
X1316759Y2187660D01*
X1311600Y2191060D01*
X1310880Y2191420D01*
X1309520Y2192540D01*
X1308779Y2194120D01*
X1308779Y2195880D01*
X1309520Y2197460D01*
X1310880Y2198580D01*
X1311600Y2198940D01*
X1316759Y2202340D01*
X1321500Y2206300D01*
X1325740Y2210800D01*
X1329440Y2215760D01*
X1332540Y2221120D01*
X1333779Y2224000D01*
X1306000Y2224000D01*
X1306000Y2199580D01*
X1305700Y2198080D01*
X1304880Y2196800D01*
X1303620Y2195920D01*
X1302140Y2195580D01*
X1294240Y2197380D01*
X1288100Y2198100D01*
X1281900Y2198100D01*
X1275760Y2197380D01*
X1267860Y2195580D01*
X1266380Y2195920D01*
X1265120Y2196800D01*
X1264300Y2198080D01*
X1264000Y2199580D01*
X1264000Y2224000D01*
X1236220Y2224000D01*
X1237460Y2221120D01*
X1240560Y2215760D01*
X1244260Y2210800D01*
X1248500Y2206300D01*
X1253240Y2202340D01*
X1258400Y2198940D01*
X1259120Y2198580D01*
X1260480Y2197460D01*
X1261220Y2195880D01*
X1261220Y2194120D01*
X1260480Y2192540D01*
X1259120Y2191420D01*
X1258400Y2191060D01*
X1253240Y2187660D01*
X1248500Y2183700D01*
X1244260Y2179200D01*
X1240560Y2174240D01*
X1237460Y2168880D01*
X1235020Y2163200D01*
X1233240Y2157260D01*
X1232160Y2151180D01*
X1231800Y2145000D01*
X1232160Y2138820D01*
X1233240Y2132740D01*
X1235020Y2126800D01*
X1237460Y2121120D01*
X1240560Y2115760D01*
X1244260Y2110800D01*
X1248500Y2106300D01*
X1253240Y2102340D01*
X1258400Y2098940D01*
X1259120Y2098580D01*
X1260480Y2097460D01*
X1261220Y2095880D01*
X1261220Y2094120D01*
X1260480Y2092540D01*
X1259120Y2091420D01*
X1258400Y2091060D01*
X1253240Y2087660D01*
X1248500Y2083700D01*
X1244260Y2079199D01*
X1240560Y2074240D01*
X1237460Y2068880D01*
X1235020Y2063200D01*
X1233240Y2057260D01*
X1232160Y2051180D01*
X1231800Y2045000D01*
X1232160Y2038820D01*
X1233240Y2032740D01*
X1235020Y2026800D01*
X1237460Y2021120D01*
X1240560Y2015760D01*
X1244260Y2010800D01*
X1248500Y2006300D01*
X1253240Y2002340D01*
X1258400Y1998940D01*
X1259120Y1998580D01*
X1260480Y1997460D01*
X1261220Y1995880D01*
X1261220Y1994120D01*
X1260480Y1992540D01*
X1259120Y1991420D01*
X1258400Y1991060D01*
X1253240Y1987660D01*
X1248500Y1983700D01*
X1244260Y1979199D01*
X1240560Y1974240D01*
X1237460Y1968880D01*
X1235020Y1963200D01*
X1233240Y1957260D01*
X1232160Y1951180D01*
X1231800Y1945000D01*
X1232160Y1938820D01*
X1233240Y1932740D01*
X1235020Y1926800D01*
X1237460Y1921120D01*
X1240560Y1915760D01*
X1244260Y1910800D01*
X1248500Y1906300D01*
X1253240Y1902340D01*
X1258400Y1898940D01*
X1259120Y1898580D01*
X1260480Y1897460D01*
X1261220Y1895880D01*
X1261220Y1894120D01*
X1260480Y1892540D01*
X1259120Y1891420D01*
X1258400Y1891060D01*
X1253240Y1887660D01*
X1248500Y1883700D01*
X1244260Y1879199D01*
X1240560Y1874240D01*
X1237460Y1868880D01*
X1235020Y1863200D01*
X1233240Y1857260D01*
X1232160Y1851180D01*
X1231800Y1845000D01*
X1232160Y1838820D01*
X1233240Y1832740D01*
X1235020Y1826800D01*
X1237460Y1821120D01*
X1240560Y1815760D01*
X1244260Y1810800D01*
X1248500Y1806300D01*
X1253240Y1802340D01*
X1258400Y1798940D01*
X1259120Y1798580D01*
X1260480Y1797460D01*
X1261220Y1795880D01*
X1261220Y1794120D01*
X1260480Y1792540D01*
X1259120Y1791420D01*
X1258400Y1791060D01*
X1253240Y1787660D01*
X1248500Y1783700D01*
X1244260Y1779199D01*
X1240560Y1774240D01*
X1237460Y1768880D01*
X1235020Y1763200D01*
X1233240Y1757260D01*
X1232160Y1751180D01*
X1231800Y1745000D01*
X1232160Y1738820D01*
X1233240Y1732740D01*
X1235020Y1726800D01*
X1237460Y1721120D01*
X1240560Y1715760D01*
X1244260Y1710800D01*
X1248500Y1706300D01*
X1253240Y1702340D01*
X1258400Y1698940D01*
X1259120Y1698580D01*
X1260480Y1697460D01*
X1261220Y1695880D01*
X1261220Y1694120D01*
X1260480Y1692540D01*
X1259120Y1691420D01*
X1258400Y1691060D01*
X1253240Y1687660D01*
X1248500Y1683700D01*
X1244260Y1679199D01*
X1240560Y1674240D01*
X1237460Y1668880D01*
X1235020Y1663200D01*
X1233240Y1657260D01*
X1232160Y1651180D01*
X1231800Y1645000D01*
X1232160Y1638820D01*
X1233240Y1632740D01*
X1235020Y1626800D01*
X1237460Y1621120D01*
X1240560Y1615760D01*
X1244260Y1610800D01*
X1248500Y1606300D01*
X1253240Y1602340D01*
X1258400Y1598940D01*
X1259120Y1598580D01*
X1260480Y1597460D01*
X1261220Y1595880D01*
X1261220Y1594120D01*
X1260480Y1592540D01*
X1259120Y1591420D01*
X1258400Y1591060D01*
X1253240Y1587660D01*
X1248500Y1583700D01*
X1244260Y1579199D01*
X1240560Y1574240D01*
X1237460Y1568880D01*
X1235020Y1563200D01*
X1233240Y1557260D01*
X1232160Y1551180D01*
X1231800Y1545000D01*
X1232160Y1538820D01*
X1233240Y1532740D01*
X1235020Y1526800D01*
X1237460Y1521120D01*
X1240560Y1515760D01*
X1244260Y1510800D01*
X1248500Y1506300D01*
X1253240Y1502340D01*
X1258400Y1498940D01*
X1259120Y1498580D01*
X1260480Y1497460D01*
X1261220Y1495880D01*
X1261220Y1494120D01*
X1260480Y1492540D01*
X1259120Y1491420D01*
X1258400Y1491060D01*
X1253240Y1487660D01*
X1248500Y1483700D01*
X1244260Y1479199D01*
X1240560Y1474240D01*
X1237460Y1468880D01*
X1235020Y1463200D01*
X1233240Y1457260D01*
X1232160Y1451180D01*
X1231800Y1445000D01*
X1232160Y1438820D01*
X1233240Y1432740D01*
X1235020Y1426800D01*
X1237460Y1421120D01*
X1240560Y1415760D01*
X1244260Y1410800D01*
X1248500Y1406300D01*
X1253240Y1402340D01*
X1258400Y1398940D01*
X1259120Y1398580D01*
X1260480Y1397460D01*
X1261220Y1395880D01*
X1261220Y1394120D01*
X1260480Y1392540D01*
X1259120Y1391420D01*
X1258400Y1391060D01*
X1253240Y1387660D01*
X1248500Y1383700D01*
X1244260Y1379199D01*
X1240560Y1374240D01*
X1237460Y1368880D01*
X1235020Y1363200D01*
X1233240Y1357260D01*
X1232160Y1351180D01*
X1231800Y1345000D01*
X1232160Y1338820D01*
X1233240Y1332740D01*
X1235020Y1326800D01*
X1237460Y1321120D01*
X1240560Y1315760D01*
X1244260Y1310800D01*
X1248500Y1306300D01*
X1253240Y1302340D01*
X1258400Y1298940D01*
X1259120Y1298580D01*
X1260480Y1297460D01*
X1261220Y1295880D01*
X1261220Y1294120D01*
X1260480Y1292540D01*
X1259120Y1291420D01*
X1258400Y1291060D01*
X1253240Y1287660D01*
X1248500Y1283700D01*
X1244260Y1279200D01*
X1240560Y1274240D01*
X1237460Y1268880D01*
X1235020Y1263200D01*
X1233240Y1257260D01*
X1232160Y1251180D01*
X1231800Y1245000D01*
X1232160Y1238820D01*
X1233240Y1232740D01*
X1235020Y1226800D01*
X1237460Y1221120D01*
X1240560Y1215760D01*
X1244260Y1210800D01*
X1248500Y1206300D01*
X1253240Y1202340D01*
X1258400Y1198940D01*
X1259120Y1198580D01*
X1260480Y1197460D01*
X1261220Y1195880D01*
X1261220Y1194120D01*
X1260480Y1192540D01*
X1259120Y1191420D01*
X1258400Y1191060D01*
X1253240Y1187660D01*
X1248500Y1183700D01*
X1244260Y1179200D01*
X1240560Y1174240D01*
X1237460Y1168880D01*
X1235020Y1163200D01*
X1233240Y1157260D01*
X1232160Y1151180D01*
X1231800Y1145000D01*
X1232160Y1138820D01*
X1233240Y1132740D01*
X1235020Y1126800D01*
X1237460Y1121120D01*
X1240560Y1115760D01*
X1244260Y1110800D01*
X1248500Y1106300D01*
X1253240Y1102340D01*
X1258400Y1098940D01*
X1259120Y1098580D01*
X1260480Y1097460D01*
X1261220Y1095880D01*
X1261220Y1094120D01*
X1260480Y1092540D01*
X1259120Y1091420D01*
X1258400Y1091060D01*
X1253240Y1087660D01*
X1248500Y1083700D01*
X1244260Y1079200D01*
X1240560Y1074240D01*
X1237460Y1068880D01*
X1235020Y1063200D01*
X1233240Y1057260D01*
X1232160Y1051180D01*
X1231800Y1045000D01*
X1232160Y1038820D01*
X1233240Y1032740D01*
X1235020Y1026800D01*
X1237460Y1021120D01*
X1240560Y1015759D01*
X1244260Y1010800D01*
X1248500Y1006300D01*
X1253240Y1002340D01*
X1258400Y998940D01*
X1259120Y998580D01*
X1260480Y997460D01*
X1261220Y995879D01*
X1261220Y994120D01*
X1260480Y992540D01*
X1259120Y991420D01*
X1258400Y991060D01*
X1253240Y987660D01*
X1248500Y983700D01*
X1244260Y979200D01*
X1240560Y974240D01*
X1237460Y968880D01*
X1235020Y963199D01*
X1233240Y957260D01*
X1232160Y951180D01*
X1231800Y945000D01*
X1232160Y938820D01*
X1233240Y932740D01*
X1235020Y926800D01*
X1237460Y921120D01*
X1240560Y915759D01*
X1244260Y910800D01*
X1248500Y906300D01*
X1253240Y902340D01*
X1258400Y898940D01*
X1263940Y896160D01*
X1269740Y894040D01*
X1275760Y892620D01*
X1281900Y891900D01*
X1288100Y891900D01*
X1294240Y892620D01*
X1300260Y894040D01*
X1306060Y896160D01*
X1311600Y898940D01*
X1316759Y902340D01*
X1318660Y903940D01*
X1319980Y904659D01*
X1321480Y904860D01*
X1322940Y904500D01*
X1324160Y903620D01*
X1324960Y902340D01*
X1325240Y900860D01*
X1325240Y580020D01*
X1324940Y578500D01*
X1324060Y577200D01*
X1257280Y510400D01*
X1255660Y508680D01*
X1254220Y506880D01*
X1252920Y505000D01*
X1251740Y503020D01*
X1250720Y500959D01*
X1249840Y498840D01*
X1249100Y496659D01*
X1248540Y494440D01*
X1248140Y492180D01*
X1247880Y489880D01*
X1247800Y487520D01*
X1247800Y325700D01*
X1247500Y324180D01*
X1246620Y322879D01*
X1245340Y322000D01*
X1243800Y321700D01*
X1242280Y322000D01*
X1240980Y322879D01*
X1058000Y505840D01*
X1057180Y507020D01*
X1056840Y508420D01*
X1056700Y510600D01*
X1055620Y516100D01*
X1053860Y521420D01*
X1051420Y526460D01*
X1048360Y531160D01*
X1044740Y535440D01*
X1040580Y539200D01*
X1035980Y542420D01*
X1031020Y545000D01*
X1025759Y546940D01*
X1020280Y548180D01*
X1014700Y548720D01*
X1009100Y548540D01*
X1003580Y547660D01*
X998199Y546060D01*
X993080Y543780D01*
X988280Y540880D01*
X984760Y538080D01*
X983580Y537420D01*
X982260Y537200D01*
X738460Y537200D01*
X736940Y537500D01*
X735639Y538380D01*
X388579Y885420D01*
X387640Y886940D01*
X387440Y888700D01*
X388020Y890380D01*
X389260Y891640D01*
X390940Y892220D01*
X394240Y892620D01*
X400260Y894040D01*
X406060Y896160D01*
X411599Y898940D01*
X416760Y902340D01*
X421500Y906300D01*
X425740Y910800D01*
X429440Y915759D01*
X432540Y921120D01*
X434980Y926800D01*
X436760Y932740D01*
X437840Y938820D01*
X438200Y945000D01*
X437840Y951180D01*
X436760Y957260D01*
X434980Y963199D01*
X432540Y968880D01*
X429440Y974240D01*
X425740Y979200D01*
X421500Y983700D01*
X416760Y987660D01*
X411599Y991060D01*
X410880Y991420D01*
X409520Y992540D01*
X408780Y994120D01*
X408780Y995879D01*
X409520Y997460D01*
X410880Y998580D01*
X411599Y998940D01*
X416760Y1002340D01*
X421500Y1006300D01*
X425740Y1010800D01*
X429440Y1015759D01*
X432540Y1021120D01*
X434980Y1026800D01*
X436760Y1032740D01*
X437840Y1038820D01*
X438200Y1045000D01*
X437840Y1051180D01*
X436760Y1057260D01*
X434980Y1063200D01*
X432540Y1068880D01*
X429440Y1074240D01*
X425740Y1079200D01*
X421500Y1083700D01*
X416760Y1087660D01*
X411599Y1091060D01*
X410880Y1091420D01*
X409520Y1092540D01*
X408780Y1094120D01*
X408780Y1095880D01*
X409520Y1097460D01*
X410880Y1098580D01*
X411599Y1098940D01*
X416760Y1102340D01*
X421500Y1106300D01*
X425740Y1110800D01*
X429440Y1115760D01*
X432540Y1121120D01*
X434980Y1126800D01*
X436760Y1132740D01*
X437840Y1138820D01*
X438200Y1145000D01*
X437879Y1150440D01*
X438140Y1152100D01*
X439040Y1153500D01*
X1161120Y1875580D01*
X1162740Y1877320D01*
X1164180Y1879100D01*
X1165480Y1881000D01*
X1166660Y1882960D01*
X1167680Y1885020D01*
X1168560Y1887140D01*
X1169300Y1889319D01*
X1169860Y1891560D01*
X1170280Y1893820D01*
X1170520Y1896100D01*
X1170600Y1898480D01*
X1170600Y2282680D01*
X1170900Y2284220D01*
X1171780Y2285520D01*
X1225680Y2339420D01*
X1227140Y2340340D01*
X1228840Y2340560D01*
X1230500Y2340040D01*
X1231780Y2338880D01*
X1232440Y2337280D01*
X1233240Y2332740D01*
X1235020Y2326800D01*
X1237460Y2321120D01*
X1240560Y2315760D01*
X1244260Y2310800D01*
X1248500Y2306300D01*
X1253240Y2302340D01*
X1258400Y2298940D01*
X1259120Y2298580D01*
X1260480Y2297460D01*
X1261220Y2295880D01*
X1261220Y2294120D01*
X1260480Y2292540D01*
X1259120Y2291420D01*
X1258400Y2291060D01*
X1253240Y2287660D01*
X1248500Y2283700D01*
X1244260Y2279200D01*
X1240560Y2274240D01*
X1237460Y2268880D01*
X1236220Y2266000D01*
X1264000Y2266000D01*
X1264000Y2290420D01*
X1264300Y2291920D01*
X1265120Y2293200D01*
X1266380Y2294080D01*
X1267860Y2294420D01*
X1275760Y2292620D01*
X1281900Y2291900D01*
X1288100Y2291900D01*
X1294240Y2292620D01*
X1302140Y2294420D01*
X1303620Y2294080D01*
X1304880Y2293200D01*
X1305700Y2291920D01*
X1306000Y2290420D01*
X1306000Y2266000D01*
X1333779Y2266000D01*
X1332540Y2268880D01*
X1329440Y2274240D01*
X1325740Y2279200D01*
X1321500Y2283700D01*
X1316759Y2287660D01*
X1311600Y2291060D01*
X1310880Y2291420D01*
X1309520Y2292540D01*
X1308779Y2294120D01*
X1308779Y2295880D01*
X1309520Y2297460D01*
X1310880Y2298580D01*
X1311600Y2298940D01*
X1316759Y2302340D01*
X1321500Y2306300D01*
X1326920Y2312060D01*
X1328020Y2312600D01*
X1329240Y2312800D01*
X1346819Y2312800D01*
X1348340Y2312500D01*
X1349640Y2311620D01*
X1921620Y1739640D01*
X1922500Y1738340D01*
X1922800Y1736819D01*
X1922800Y1432680D01*
X1922420Y1430980D01*
X1921380Y1429620D01*
X1919560Y1428100D01*
X1915440Y1423740D01*
X1911860Y1418920D01*
X1908760Y1413480D01*
X1907880Y1412200D01*
X1906600Y1411360D01*
X1905080Y1411060D01*
X1903560Y1411360D01*
X1902280Y1412200D01*
X1901399Y1413480D01*
X1901120Y1414120D01*
X1898120Y1419319D01*
X1894540Y1424120D01*
X1890420Y1428500D01*
X1885820Y1432360D01*
X1880800Y1435660D01*
X1875220Y1438440D01*
X1875220Y1403280D01*
X1900140Y1403280D01*
X1901840Y1402920D01*
X1903200Y1401860D01*
X1904000Y1400320D01*
X1904079Y1398600D01*
X1903720Y1396540D01*
X1903360Y1390440D01*
X1903360Y1359160D01*
X1903720Y1353060D01*
X1903940Y1351800D01*
X1903860Y1350060D01*
X1903060Y1348540D01*
X1901699Y1347480D01*
X1900000Y1347100D01*
X1875220Y1347100D01*
X1875220Y1311960D01*
X1880800Y1314740D01*
X1885820Y1318040D01*
X1890420Y1321900D01*
X1894540Y1326260D01*
X1898120Y1331080D01*
X1901240Y1336519D01*
X1902100Y1337800D01*
X1903400Y1338640D01*
X1904920Y1338940D01*
X1906420Y1338640D01*
X1907720Y1337800D01*
X1908580Y1336519D01*
X1908860Y1335880D01*
X1911860Y1330680D01*
X1915440Y1325860D01*
X1919560Y1321500D01*
X1924160Y1317640D01*
X1929180Y1314340D01*
X1934540Y1311639D01*
X1940180Y1309600D01*
X1946040Y1308220D01*
X1952000Y1307520D01*
X1958000Y1307520D01*
X1963959Y1308220D01*
X1969800Y1309600D01*
X1975440Y1311639D01*
X1980800Y1314340D01*
X1985820Y1317640D01*
X1990420Y1321500D01*
X1994540Y1325860D01*
X1998120Y1330680D01*
X2001120Y1335880D01*
X2003500Y1341399D01*
X2005220Y1347140D01*
X2006279Y1353060D01*
X2006620Y1359160D01*
X2006620Y1390440D01*
X2006279Y1396540D01*
X2005220Y1402460D01*
X2003500Y1408200D01*
X2001120Y1413720D01*
X1998120Y1418920D01*
X1994540Y1423740D01*
X1990420Y1428100D01*
X1988620Y1429600D01*
X1987580Y1430980D01*
X1987200Y1432660D01*
X1987200Y1736819D01*
X1987500Y1738340D01*
X1988380Y1739640D01*
X2011300Y1762580D01*
X2012600Y1763440D01*
X2014139Y1763740D01*
X2026260Y1763740D01*
X2026260Y1775860D01*
X2026560Y1777400D01*
X2027720Y1779000D01*
X2029019Y1779860D01*
X2030560Y1780160D01*
X2059760Y1780160D01*
X2061279Y1779860D01*
X2062580Y1779000D01*
X2063440Y1777700D01*
X2063760Y1776160D01*
X2063760Y1763740D01*
X2079060Y1763740D01*
X2080580Y1763440D01*
X2081879Y1762580D01*
X2095120Y1749340D01*
X2096000Y1748040D01*
X2096300Y1746500D01*
X2096300Y1730240D01*
X2096000Y1728720D01*
X2095120Y1727420D01*
X2093839Y1726560D01*
X2092300Y1726240D01*
X2063760Y1726240D01*
X2063760Y1700160D01*
X2066699Y1701420D01*
X2071900Y1704400D01*
X2076680Y1708020D01*
X2080980Y1712200D01*
X2084740Y1716860D01*
X2087900Y1721960D01*
X2088660Y1723640D01*
X2089560Y1724880D01*
X2090880Y1725700D01*
X2092380Y1725960D01*
X2093899Y1725640D01*
X2095160Y1724760D01*
X2096000Y1723480D01*
X2096300Y1721960D01*
X2096300Y1712700D01*
X2096639Y1709340D01*
X2097560Y1706300D01*
X2099040Y1703520D01*
X2101060Y1701060D01*
X2103520Y1699040D01*
X2106300Y1697560D01*
X2109340Y1696639D01*
X2112700Y1696300D01*
X2173380Y1696300D01*
X2174920Y1696000D01*
X2176200Y1695120D01*
X2177080Y1693839D01*
X2177380Y1692300D01*
X2177380Y836580D01*
X2177080Y835060D01*
X2176200Y833760D01*
X2104980Y762520D01*
X2103500Y761580D01*
X2101780Y761360D01*
X2100120Y761900D01*
X2098840Y763080D01*
X2098200Y764700D01*
X2097660Y768040D01*
X2096060Y773420D01*
X2093779Y778540D01*
X2090880Y783340D01*
X2087380Y787720D01*
X2083360Y791620D01*
X2078860Y794980D01*
X2073980Y797720D01*
X2068779Y799820D01*
X2063360Y801260D01*
X2057800Y801960D01*
X2052200Y801960D01*
X2046639Y801260D01*
X2041220Y799820D01*
X2036020Y797720D01*
X2031140Y794980D01*
X2026639Y791620D01*
X2022620Y787720D01*
X2019120Y783340D01*
X2016220Y778540D01*
X2013940Y773420D01*
X2012920Y769960D01*
X2012140Y768520D01*
X2010840Y767500D01*
X2009240Y767099D01*
X2007620Y767360D01*
X2006260Y768259D01*
X1788360Y986160D01*
X1787500Y987460D01*
X1787200Y988980D01*
X1787200Y1303880D01*
X1787460Y1305320D01*
X1788220Y1306579D01*
X1789400Y1307460D01*
X1790800Y1307860D01*
X1793580Y1308140D01*
X1796620Y1309060D01*
X1799420Y1310560D01*
X1801860Y1312580D01*
X1803880Y1315020D01*
X1805380Y1317820D01*
X1806300Y1320860D01*
X1806620Y1324220D01*
X1806620Y1326040D01*
X1806980Y1327660D01*
X1807940Y1329000D01*
X1809360Y1329840D01*
X1811020Y1330020D01*
X1812600Y1329520D01*
X1813839Y1328420D01*
X1815440Y1326260D01*
X1819560Y1321900D01*
X1824160Y1318040D01*
X1829180Y1314740D01*
X1834780Y1311960D01*
X1834780Y1347100D01*
X1810620Y1347100D01*
X1809100Y1347400D01*
X1807800Y1348280D01*
X1806940Y1349580D01*
X1806620Y1351100D01*
X1806620Y1399280D01*
X1806940Y1400820D01*
X1807800Y1402120D01*
X1809100Y1402980D01*
X1810620Y1403280D01*
X1834780Y1403280D01*
X1834780Y1438440D01*
X1829180Y1435660D01*
X1824160Y1432360D01*
X1819560Y1428500D01*
X1815440Y1424120D01*
X1813839Y1421960D01*
X1812600Y1420860D01*
X1811020Y1420380D01*
X1809360Y1420560D01*
X1807940Y1421399D01*
X1806980Y1422740D01*
X1806620Y1424360D01*
X1806620Y1426180D01*
X1806300Y1429540D01*
X1805380Y1432560D01*
X1803880Y1435360D01*
X1801860Y1437820D01*
X1799420Y1439820D01*
X1796620Y1441320D01*
X1793580Y1442240D01*
X1790240Y1442580D01*
X1719760Y1442580D01*
X1716399Y1442240D01*
X1713360Y1441320D01*
X1710580Y1439820D01*
X1708120Y1437820D01*
X1706100Y1435360D01*
X1704620Y1432560D01*
X1703700Y1429540D01*
X1703360Y1426180D01*
X1703360Y1414560D01*
X1703060Y1413040D01*
X1702200Y1411740D01*
X1700900Y1410860D01*
X1699360Y1410560D01*
X1697840Y1410860D01*
X1696540Y1411740D01*
X1688380Y1419900D01*
X1687500Y1421200D01*
X1687200Y1422720D01*
X1687200Y1712660D01*
X1687560Y1714319D01*
X1688580Y1715700D01*
X1690080Y1716500D01*
X1693720Y1717560D01*
X1696480Y1719040D01*
X1698940Y1721060D01*
X1700960Y1723520D01*
X1702440Y1726300D01*
X1703360Y1729340D01*
X1703700Y1732700D01*
X1703700Y1797300D01*
X1703360Y1800660D01*
X1702440Y1803700D01*
X1700960Y1806480D01*
X1698940Y1808940D01*
X1696480Y1810960D01*
X1693700Y1812440D01*
X1690660Y1813360D01*
X1687300Y1813700D01*
X1622700Y1813700D01*
X1619340Y1813360D01*
X1616300Y1812440D01*
X1613520Y1810960D01*
X1611060Y1808940D01*
X1609040Y1806480D01*
X1607560Y1803700D01*
X1606639Y1800660D01*
X1606300Y1797300D01*
X1606300Y1788040D01*
X1606000Y1786519D01*
X1605160Y1785240D01*
X1603899Y1784360D01*
X1602380Y1784040D01*
X1600880Y1784300D01*
X1599560Y1785120D01*
X1598660Y1786360D01*
X1597900Y1788040D01*
X1594740Y1793140D01*
X1590980Y1797800D01*
X1586680Y1801980D01*
X1581900Y1805600D01*
X1576699Y1808580D01*
X1573760Y1809840D01*
X1573760Y1783740D01*
X1602300Y1783740D01*
X1603839Y1783440D01*
X1605120Y1782580D01*
X1606000Y1781279D01*
X1606300Y1779740D01*
X1606300Y1750240D01*
X1606000Y1748720D01*
X1605120Y1747420D01*
X1603839Y1746560D01*
X1602300Y1746240D01*
X1573760Y1746240D01*
X1573760Y1720160D01*
X1576699Y1721420D01*
X1581900Y1724400D01*
X1586680Y1728020D01*
X1590980Y1732200D01*
X1594740Y1736860D01*
X1597900Y1741960D01*
X1598660Y1743640D01*
X1599560Y1744880D01*
X1600880Y1745700D01*
X1602380Y1745960D01*
X1603899Y1745640D01*
X1605160Y1744760D01*
X1606000Y1743480D01*
X1606300Y1741960D01*
X1606300Y1732700D01*
X1606639Y1729340D01*
X1607560Y1726300D01*
X1609040Y1723520D01*
X1611060Y1721060D01*
X1613520Y1719040D01*
X1616279Y1717560D01*
X1619920Y1716500D01*
X1621420Y1715700D01*
X1622440Y1714319D01*
X1622800Y1712660D01*
X1622800Y1407800D01*
X1622880Y1405440D01*
X1623140Y1403140D01*
X1623540Y1400880D01*
X1624100Y1398660D01*
X1624840Y1396480D01*
X1625720Y1394360D01*
X1626740Y1392300D01*
X1627920Y1390320D01*
X1629220Y1388440D01*
X1630660Y1386639D01*
X1632280Y1384900D01*
X1664720Y1352480D01*
X1666440Y1350860D01*
X1668240Y1349420D01*
X1670120Y1348120D01*
X1672100Y1346940D01*
X1674160Y1345920D01*
X1676279Y1345040D01*
X1678460Y1344300D01*
X1680680Y1343740D01*
X1682940Y1343320D01*
X1685240Y1343080D01*
X1687600Y1343000D01*
X1699360Y1343000D01*
X1700900Y1342700D01*
X1702200Y1341819D01*
X1703060Y1340520D01*
X1703360Y1339000D01*
X1703360Y1324220D01*
X1703700Y1320860D01*
X1704620Y1317820D01*
X1706100Y1315020D01*
X1708120Y1312580D01*
X1710580Y1310560D01*
X1713360Y1309060D01*
X1716399Y1308140D01*
X1719180Y1307880D01*
X1720580Y1307460D01*
X1721759Y1306579D01*
X1722520Y1305320D01*
X1722800Y1303880D01*
X1722800Y978460D01*
X1722480Y976919D01*
X1721620Y975620D01*
X1720320Y974760D01*
X1718800Y974460D01*
X1717260Y974760D01*
X1715960Y975620D01*
X1704620Y986960D01*
X1703700Y988420D01*
X1702960Y990440D01*
X1700260Y995800D01*
X1696960Y1000819D01*
X1693100Y1005420D01*
X1688740Y1009539D01*
X1683920Y1013120D01*
X1678480Y1016240D01*
X1677200Y1017099D01*
X1676360Y1018400D01*
X1676060Y1019900D01*
X1676360Y1021420D01*
X1677200Y1022720D01*
X1678480Y1023580D01*
X1679120Y1023860D01*
X1684319Y1026860D01*
X1689139Y1030440D01*
X1693500Y1034560D01*
X1697360Y1039160D01*
X1700660Y1044180D01*
X1703440Y1049780D01*
X1668280Y1049780D01*
X1668280Y1024860D01*
X1667920Y1023160D01*
X1666860Y1021780D01*
X1665320Y1020980D01*
X1663600Y1020920D01*
X1661540Y1021280D01*
X1655440Y1021620D01*
X1624180Y1021620D01*
X1618060Y1021280D01*
X1616800Y1021040D01*
X1615080Y1021120D01*
X1613540Y1021919D01*
X1612480Y1023300D01*
X1612100Y1024980D01*
X1612100Y1049780D01*
X1576960Y1049780D01*
X1579740Y1044180D01*
X1583040Y1039160D01*
X1586900Y1034560D01*
X1591260Y1030440D01*
X1596080Y1026860D01*
X1601519Y1023760D01*
X1602800Y1022880D01*
X1603640Y1021600D01*
X1603940Y1020080D01*
X1603640Y1018560D01*
X1602800Y1017280D01*
X1601519Y1016400D01*
X1600880Y1016120D01*
X1595680Y1013120D01*
X1590880Y1009539D01*
X1586500Y1005420D01*
X1582640Y1000819D01*
X1579340Y995800D01*
X1576660Y990440D01*
X1574600Y984800D01*
X1573220Y978960D01*
X1572520Y973000D01*
X1572520Y967000D01*
X1573220Y961040D01*
X1574600Y955180D01*
X1576660Y949539D01*
X1579340Y944180D01*
X1582640Y939160D01*
X1586500Y934560D01*
X1590880Y930440D01*
X1593040Y928840D01*
X1594139Y927600D01*
X1594620Y926020D01*
X1594440Y924360D01*
X1593600Y922940D01*
X1592260Y921979D01*
X1590640Y921620D01*
X1588820Y921620D01*
X1585460Y921300D01*
X1582440Y920380D01*
X1579640Y918880D01*
X1577180Y916860D01*
X1575180Y914419D01*
X1573680Y911620D01*
X1572760Y908580D01*
X1572420Y905240D01*
X1572420Y834760D01*
X1572760Y831400D01*
X1573680Y828360D01*
X1575180Y825580D01*
X1577180Y823120D01*
X1579640Y821100D01*
X1582440Y819620D01*
X1585460Y818700D01*
X1588820Y818360D01*
X1690780Y818360D01*
X1694139Y818700D01*
X1697180Y819620D01*
X1699980Y821100D01*
X1702420Y823120D01*
X1704440Y825580D01*
X1705940Y828360D01*
X1706860Y831400D01*
X1707180Y834760D01*
X1707180Y883660D01*
X1707500Y885200D01*
X1708360Y886500D01*
X1709660Y887360D01*
X1711180Y887660D01*
X1712720Y887360D01*
X1714019Y886500D01*
X2069100Y531400D01*
X2069980Y530100D01*
X2070280Y528580D01*
X2070280Y359820D01*
X2070000Y358340D01*
X2069199Y357080D01*
X2068000Y356200D01*
X2067000Y355740D01*
X2060680Y351940D01*
X2054740Y347540D01*
X2049280Y342580D01*
X2044319Y337100D01*
X2039920Y331180D01*
X2036120Y324840D01*
X2032960Y318160D01*
X2030480Y311220D01*
X2028680Y304060D01*
X2027600Y296740D01*
X2027220Y289280D01*
X2027220Y210720D01*
X2027600Y203260D01*
X2028680Y195940D01*
X2030480Y188780D01*
X2032960Y181840D01*
X2036120Y175159D01*
X2039920Y168820D01*
X2044319Y162900D01*
X2049460Y157240D01*
X2050400Y155960D01*
X2050780Y154400D01*
X2050520Y152840D01*
X2049660Y151500D01*
X2048340Y150600D01*
X2046780Y150280D01*
X1934440Y150280D01*
X1932900Y150580D01*
X1931600Y151460D01*
X1863940Y219120D01*
X1863080Y220400D01*
X1862780Y221940D01*
X1862780Y289280D01*
X1862400Y296740D01*
X1861320Y304060D01*
X1859520Y311220D01*
X1857040Y318160D01*
X1853880Y324840D01*
X1850080Y331180D01*
X1845680Y337100D01*
X1840720Y342580D01*
X1835260Y347540D01*
X1829319Y351940D01*
X1823000Y355740D01*
X1816320Y358900D01*
X1809360Y361380D01*
X1802200Y363180D01*
X1794900Y364260D01*
X1787520Y364620D01*
X1780140Y364260D01*
X1772840Y363180D01*
X1765680Y361380D01*
X1758720Y358900D01*
X1752040Y355740D01*
X1745720Y351940D01*
X1739780Y347540D01*
X1734319Y342580D01*
X1729360Y337100D01*
X1724960Y331180D01*
X1721160Y324840D01*
X1718000Y318160D01*
X1715520Y311220D01*
X1713720Y304060D01*
X1712640Y296740D01*
X1712260Y289280D01*
X1712260Y210720D01*
X1712640Y203260D01*
X1713720Y195940D01*
X1715520Y188780D01*
X1718000Y181840D01*
X1721160Y175159D01*
X1724960Y168820D01*
X1729360Y162900D01*
X1734319Y157420D01*
X1739780Y152460D01*
X1745720Y148060D01*
X1752040Y144260D01*
X1758720Y141100D01*
X1765680Y138620D01*
X1772840Y136820D01*
X1780140Y135740D01*
X1787520Y135380D01*
X1794900Y135740D01*
X1802200Y136820D01*
X1809360Y138620D01*
X1816320Y141100D01*
X1823000Y144260D01*
X1829319Y148060D01*
X1834940Y152220D01*
X1836200Y152840D01*
X1837620Y153000D01*
X1838980Y152640D01*
X1840140Y151840D01*
X1889960Y102020D01*
X1890820Y100740D01*
X1891120Y99200D01*
X1890820Y97660D01*
X1889960Y96380D01*
X1888660Y95500D01*
X1887120Y95200D01*
G37*

%LPC*%
G36*
X1510140Y1783740D02*
G01*
X1536260Y1783740D01*
X1536260Y1809920D01*
X1530660Y1807160D01*
X1525660Y1803860D01*
X1521100Y1799960D01*
X1517060Y1795520D01*
X1513600Y1790640D01*
X1510760Y1785360D01*
G37*
G36*
X783620Y175740D02*
G01*
X830240Y175740D01*
X829380Y177940D01*
X826600Y182979D01*
X823240Y187620D01*
X819300Y191800D01*
X814880Y195460D01*
X810040Y198540D01*
X804840Y200980D01*
X799380Y202760D01*
X793740Y203840D01*
X787880Y204200D01*
X783620Y204200D01*
G37*
G36*
X659160Y175740D02*
G01*
X705780Y175740D01*
X705780Y204200D01*
X701520Y204200D01*
X695660Y203840D01*
X690020Y202760D01*
X684560Y200980D01*
X679360Y198540D01*
X674520Y195460D01*
X670100Y191800D01*
X666160Y187620D01*
X662800Y182979D01*
X660020Y177940D01*
G37*
G36*
X1162480Y182300D02*
G01*
X1168640Y182300D01*
X1168640Y211759D01*
X1146080Y211759D01*
X1146080Y198700D01*
X1146420Y195340D01*
X1147340Y192320D01*
X1148820Y189520D01*
X1150840Y187060D01*
X1153300Y185060D01*
X1156100Y183560D01*
X1159120Y182640D01*
G37*
G36*
X1146080Y248240D02*
G01*
X1168640Y248240D01*
X1168640Y277700D01*
X1162480Y277700D01*
X1159120Y277360D01*
X1156100Y276440D01*
X1153300Y274940D01*
X1150840Y272940D01*
X1148820Y270480D01*
X1147340Y267680D01*
X1146420Y264660D01*
X1146080Y261300D01*
G37*
G36*
X840260Y250640D02*
G01*
X846000Y250640D01*
X851700Y251360D01*
X857260Y252800D01*
X862600Y254899D01*
X867620Y257680D01*
X872280Y261040D01*
X876460Y264980D01*
X880120Y269400D01*
X883199Y274240D01*
X885639Y279440D01*
X887420Y284900D01*
X888480Y290540D01*
X888860Y296400D01*
X888860Y386700D01*
X888480Y392560D01*
X887420Y398200D01*
X885639Y403660D01*
X883199Y408860D01*
X880120Y413700D01*
X876460Y418120D01*
X872280Y422060D01*
X867620Y425420D01*
X862600Y428200D01*
X857260Y430300D01*
X851700Y431740D01*
X846000Y432460D01*
X840260Y432460D01*
X834560Y431740D01*
X829000Y430300D01*
X823660Y428200D01*
X818640Y425420D01*
X813980Y422060D01*
X809800Y418120D01*
X806140Y413700D01*
X803060Y408860D01*
X800620Y403660D01*
X798840Y398200D01*
X797780Y392560D01*
X797400Y386700D01*
X797400Y296400D01*
X797780Y290540D01*
X798840Y284900D01*
X800620Y279440D01*
X803060Y274240D01*
X806140Y269400D01*
X809800Y264980D01*
X813980Y261040D01*
X818640Y257680D01*
X823660Y254899D01*
X829000Y252800D01*
X834560Y251360D01*
G37*
G36*
X624180Y254040D02*
G01*
X626380Y254899D01*
X631400Y257680D01*
X636060Y261040D01*
X640240Y264980D01*
X643900Y269400D01*
X646979Y274240D01*
X649419Y279440D01*
X651200Y284900D01*
X652260Y290540D01*
X652640Y296400D01*
X652640Y301640D01*
X624180Y301640D01*
G37*
G36*
X589640Y254040D02*
G01*
X589640Y301640D01*
X561180Y301640D01*
X561180Y296400D01*
X561560Y290540D01*
X562620Y284900D01*
X564400Y279440D01*
X566840Y274240D01*
X569920Y269400D01*
X573580Y264980D01*
X577760Y261040D01*
X582420Y257680D01*
X587440Y254899D01*
G37*
G36*
X561180Y381460D02*
G01*
X589640Y381460D01*
X589640Y429060D01*
X587440Y428200D01*
X582420Y425420D01*
X577760Y422060D01*
X573580Y418120D01*
X569920Y413700D01*
X566840Y408860D01*
X564400Y403660D01*
X562620Y398200D01*
X561560Y392560D01*
X561180Y386700D01*
G37*
G36*
X701520Y112760D02*
G01*
X705780Y112760D01*
X705780Y141220D01*
X659160Y141220D01*
X660020Y139020D01*
X662800Y133980D01*
X666160Y129340D01*
X670100Y125160D01*
X674520Y121500D01*
X679360Y118420D01*
X684560Y115980D01*
X690020Y114200D01*
X695660Y113120D01*
G37*
G36*
X783620Y112760D02*
G01*
X787880Y112760D01*
X793740Y113120D01*
X799380Y114200D01*
X804840Y115980D01*
X810040Y118420D01*
X814880Y121500D01*
X819300Y125160D01*
X823240Y129340D01*
X826600Y133980D01*
X829380Y139020D01*
X830240Y141220D01*
X783620Y141220D01*
G37*
G36*
X1668280Y1090220D02*
G01*
X1703440Y1090220D01*
X1700660Y1095800D01*
X1697360Y1100820D01*
X1693500Y1105420D01*
X1689139Y1109540D01*
X1684319Y1113120D01*
X1679120Y1116120D01*
X1673600Y1118500D01*
X1668280Y1120100D01*
G37*
G36*
X1576960Y1090220D02*
G01*
X1612100Y1090220D01*
X1612100Y1120100D01*
X1606800Y1118500D01*
X1601279Y1116120D01*
X1596080Y1113120D01*
X1591260Y1109540D01*
X1586900Y1105420D01*
X1583040Y1100820D01*
X1579740Y1095800D01*
G37*
G36*
X2038720Y1131100D02*
G01*
X2038720Y1155420D01*
X2014460Y1155420D01*
X2015000Y1153980D01*
X2017580Y1149020D01*
X2020800Y1144420D01*
X2024560Y1140260D01*
X2028839Y1136640D01*
X2033540Y1133580D01*
G37*
G36*
X2071279Y1131100D02*
G01*
X2076459Y1133580D01*
X2081160Y1136640D01*
X2085440Y1140260D01*
X2089199Y1144420D01*
X2092420Y1149020D01*
X2095000Y1153980D01*
X2095540Y1155420D01*
X2071279Y1155420D01*
G37*
G36*
X2014460Y1187980D02*
G01*
X2038720Y1187980D01*
X2038720Y1212200D01*
X2036020Y1211120D01*
X2031140Y1208360D01*
X2026639Y1205000D01*
X2022620Y1201100D01*
X2019120Y1196720D01*
X2016220Y1191920D01*
G37*
G36*
X2071279Y1187980D02*
G01*
X2095540Y1187980D01*
X2093779Y1191920D01*
X2090880Y1196720D01*
X2087380Y1201100D01*
X2083360Y1205000D01*
X2078860Y1208360D01*
X2073980Y1211120D01*
X2071279Y1212200D01*
G37*
G36*
X2026260Y1700080D02*
G01*
X2026260Y1726240D01*
X2000140Y1726240D01*
X2000760Y1724640D01*
X2003600Y1719360D01*
X2007060Y1714480D01*
X2011100Y1710040D01*
X2015660Y1706140D01*
X2020660Y1702840D01*
G37*
G36*
X1536260Y1720080D02*
G01*
X1536260Y1746240D01*
X1510140Y1746240D01*
X1510760Y1744640D01*
X1513600Y1739360D01*
X1517060Y1734480D01*
X1521100Y1730040D01*
X1525660Y1726140D01*
X1530660Y1722840D01*
G37*
G36*
X624180Y381460D02*
G01*
X652640Y381460D01*
X652640Y386700D01*
X652260Y392560D01*
X651200Y398200D01*
X649419Y403660D01*
X646979Y408860D01*
X643900Y413700D01*
X640240Y418120D01*
X636060Y422060D01*
X631400Y425420D01*
X626380Y428200D01*
X624180Y429060D01*
G37*

%LPD*%
D10*
X2102480Y249998D02*
G01*
X2102480Y543569D01*
X1676050Y969998D01*
X1639800Y969998D01*
X1285001Y1944998D02*
G01*
X1357440Y1872559D01*
X1357440Y565028D01*
X1426691Y504998D02*
G01*
X1366661Y565028D01*
X1357440Y565028D01*
X1357440Y565028D02*
G01*
X1280001Y487588D01*
X1280001Y229998D01*
X2055001Y1171689D02*
G01*
X2044530Y1171689D01*
X1854991Y1361228D01*
X1854991Y1375198D01*
X2045001Y1744998D02*
G01*
X2045001Y1181689D01*
X2055001Y1171689D01*
X1285001Y2244998D02*
G01*
X1555001Y1974998D01*
X1555001Y1764998D01*
X1180001Y229998D02*
G01*
X1180001Y166469D01*
X1180001Y166469D02*
G01*
X1207691Y166469D01*
X1214930Y159229D01*
X1300841Y159229D01*
X1490460Y348849D01*
X1490460Y938229D01*
X1631220Y1078989D01*
X1555001Y1764998D02*
G01*
X1555001Y1155198D01*
X1631220Y1078989D01*
X1631220Y1078989D02*
G01*
X1640191Y1070009D01*
X2000001Y2099998D02*
G01*
X2110771Y2099998D01*
X2110771Y2099998D02*
G01*
X2209580Y2001188D01*
X2209580Y821588D01*
X2092480Y704488D01*
X2000001Y2199998D02*
G01*
X1630550Y2199998D01*
X1412461Y2418089D01*
X1258810Y2418089D01*
X1138401Y2297678D01*
X1138401Y1898398D01*
X385001Y1144998D01*
X1955001Y1751808D02*
G01*
X1361810Y2344998D01*
X1285001Y2344998D01*
X2145001Y1744998D02*
G01*
X2077631Y1812368D01*
X2015560Y1812368D01*
X1955001Y1751808D01*
X1955001Y1751808D02*
G01*
X1955001Y1374809D01*
X385001Y1544998D02*
G01*
X1032710Y2192709D01*
X1032710Y2260639D01*
X1244000Y2471929D01*
X1817300Y2471929D01*
X1889230Y2399998D01*
X1944620Y2399998D02*
G01*
X1889230Y2399998D01*
X1944620Y2399998D02*
G01*
X2000001Y2399998D01*
X6256571Y2503798D02*
G01*
X6256571Y338398D01*
X2595171Y338398D02*
G01*
X2491370Y442199D01*
X2491370Y2399998D01*
X2000001Y2399998D02*
G01*
X2491370Y2399998D01*
X2491370Y2399998D02*
G01*
X2595171Y2503798D01*
X1655001Y1764998D02*
G01*
X1655001Y1407728D01*
X1687530Y1375198D01*
X1754991Y1375198D02*
G01*
X1687530Y1375198D01*
X1754991Y1375198D02*
G01*
X1754991Y973989D01*
X2197761Y531219D01*
X2197761Y175039D01*
X2140801Y118078D01*
X1919440Y118078D01*
X1787520Y249998D01*
X1013311Y504998D02*
G01*
X723470Y504998D01*
X312301Y916168D01*
X312301Y1672298D01*
X385001Y1744998D01*
X1013311Y504998D02*
G01*
X1230001Y288308D01*
X1230001Y229998D01*
D11*
G01*
X2595169Y2503800D03*
G01*
X2595169Y338400D03*
G01*
X6256570Y338400D03*
G01*
X6256570Y2503800D03*
D12*
G01*
X2000000Y2400000D03*
G01*
X2000000Y2300000D03*
G01*
X2000000Y2200000D03*
G01*
X2000000Y2100000D03*
D13*
G01*
X1639804Y969994D03*
G01*
X1640195Y1070005D03*
D14*
G01*
X1639804Y869994D03*
D15*
G01*
X1854994Y1375194D03*
G01*
X1955005Y1374805D03*
D16*
G01*
X1754994Y1375194D03*
D17*
G01*
X1280000Y230000D03*
G01*
X1230000Y230000D03*
D18*
G01*
X1180000Y230000D03*
D19*
G01*
X744699Y158449D03*
D20*
G01*
X606900Y341550D03*
G01*
X843100Y341550D03*
D21*
G01*
X1555000Y1765000D03*
D22*
G01*
X1655000Y1765000D03*
G01*
X2145000Y1745000D03*
D21*
G01*
X2045000Y1745000D03*
D23*
G01*
X1787520Y250000D03*
G01*
X2102479Y250000D03*
D24*
G01*
X2055000Y1171689D03*
G01*
X2055000Y758310D03*
G01*
X1013310Y505000D03*
G01*
X1426689Y505000D03*
D25*
G01*
X1285000Y945000D03*
G01*
X1285000Y1045000D03*
G01*
X1285000Y1145000D03*
G01*
X1285000Y1245000D03*
G01*
X1285000Y1345000D03*
G01*
X1285000Y1445000D03*
G01*
X1285000Y1545000D03*
G01*
X1285000Y1645000D03*
G01*
X1285000Y1745000D03*
G01*
X1285000Y1845000D03*
G01*
X1285000Y1945000D03*
G01*
X1285000Y2045000D03*
G01*
X1285000Y2145000D03*
G01*
X1285000Y2245000D03*
G01*
X1285000Y2345000D03*
G01*
X385000Y2345000D03*
G01*
X385000Y2245000D03*
G01*
X385000Y2145000D03*
G01*
X385000Y2045000D03*
G01*
X385000Y1945000D03*
G01*
X385000Y1845000D03*
G01*
X385000Y1745000D03*
G01*
X385000Y1645000D03*
G01*
X385000Y1545000D03*
G01*
X385000Y1445000D03*
G01*
X385000Y1345000D03*
G01*
X385000Y1245000D03*
G01*
X385000Y1145000D03*
G01*
X385000Y1045000D03*
G01*
X385000Y945000D03*
D26*
G01*
X2092480Y704488D03*
M02*
