G04 Layer: TopSolderMaskLayer*
G04 EasyEDA v6.5.22, 2022-12-24 17:29:58*
G04 e378571d72874c3dbad289936ee8c248,b6e8962e620740079bb188d2402746ea,10*
G04 Gerber Generator version 0.2*
G04 Scale: 100 percent, Rotated: No, Reflected: No *
G04 Dimensions in inches *
G04 leading zeros omitted , absolute positions ,3 integer and 6 decimal *
%FSLAX36Y36*%
%MOIN*%

%AMMACRO1*1,1,$1,$2,$3*1,1,$1,$4,$5*1,1,$1,0-$2,0-$3*1,1,$1,0-$4,0-$5*20,1,$1,$2,$3,$4,$5,0*20,1,$1,$4,$5,0-$2,0-$3,0*20,1,$1,0-$2,0-$3,0-$4,0-$5,0*20,1,$1,0-$4,0-$5,$2,$3,0*4,1,4,$2,$3,$4,$5,0-$2,0-$3,0-$4,0-$5,$2,$3,0*%
%ADD10C,0.2836*%
%ADD11MACRO1,0.0157X-0.0787X0.0335X0.0787X0.0335*%
%ADD12O,0.10636200000000001X0.074866*%
%ADD13MACRO1,0.004X-0.0512X-0.0354X-0.0512X0.0354*%
%ADD14O,0.074866X0.10636200000000001*%
%ADD15MACRO1,0.004X-0.0354X0.0512X0.0354X0.0512*%
%ADD16O,0.039432999999999996X0.066992*%
%ADD17MACRO1,0.004X-0.0177X0.0315X0.0177X0.0315*%
%ADD18O,0.149669X0.063055*%
%ADD19O,0.063055X0.153606*%
%ADD20C,0.0690*%
%ADD21MACRO1,0.004X-0.0325X0.0325X0.0325X0.0325*%
%ADD22O,0.12211X0.20085*%
%ADD23O,0.126142X0.20488199999999998*%
%ADD24C,0.0591*%
%ADD25C,0.0820*%

%LPD*%
D10*
G01*
X2595169Y2503800D03*
G01*
X2595169Y338400D03*
G01*
X6256570Y338400D03*
G01*
X6256570Y2503800D03*
D11*
G01*
X2000000Y2400000D03*
G01*
X2000000Y2300000D03*
G01*
X2000000Y2200000D03*
G01*
X2000000Y2100000D03*
D12*
G01*
X1639804Y969994D03*
G01*
X1640195Y1070005D03*
D13*
G01*
X1639805Y869995D03*
D14*
G01*
X1854994Y1375194D03*
G01*
X1955005Y1374805D03*
D15*
G01*
X1754994Y1375195D03*
D16*
G01*
X1280000Y230000D03*
G01*
X1230000Y230000D03*
D17*
G01*
X1180000Y230000D03*
D18*
G01*
X744699Y158449D03*
D19*
G01*
X606900Y341550D03*
G01*
X843100Y341550D03*
D20*
G01*
X1555000Y1765000D03*
D21*
G01*
X1655000Y1765000D03*
G01*
X2145000Y1745000D03*
D20*
G01*
X2045000Y1745000D03*
D22*
G01*
X1787520Y250000D03*
D23*
G01*
X2102479Y250000D03*
D24*
G01*
X2055000Y1171689D03*
G01*
X2055000Y758310D03*
G01*
X1013310Y505000D03*
G01*
X1426689Y505000D03*
D25*
G01*
X1285000Y945000D03*
G01*
X1285000Y1045000D03*
G01*
X1285000Y1145000D03*
G01*
X1285000Y1245000D03*
G01*
X1285000Y1345000D03*
G01*
X1285000Y1445000D03*
G01*
X1285000Y1545000D03*
G01*
X1285000Y1645000D03*
G01*
X1285000Y1745000D03*
G01*
X1285000Y1845000D03*
G01*
X1285000Y1945000D03*
G01*
X1285000Y2045000D03*
G01*
X1285000Y2145000D03*
G01*
X1285000Y2245000D03*
G01*
X1285000Y2345000D03*
G01*
X385000Y2345000D03*
G01*
X385000Y2245000D03*
G01*
X385000Y2145000D03*
G01*
X385000Y2045000D03*
G01*
X385000Y1945000D03*
G01*
X385000Y1845000D03*
G01*
X385000Y1745000D03*
G01*
X385000Y1645000D03*
G01*
X385000Y1545000D03*
G01*
X385000Y1445000D03*
G01*
X385000Y1345000D03*
G01*
X385000Y1245000D03*
G01*
X385000Y1145000D03*
G01*
X385000Y1045000D03*
G01*
X385000Y945000D03*
M02*
